<svg fill="none" xmlns="http://www.w3.org/2000/svg" viewBox="0 0 22 36"><g clip-path="url(#a)"><path d="M11.02 2.93a22 22 0 0 1 4.74 13.89v1.2l1.03.62a6.44 6.44 0 0 1 2.8 3.53c-.42-.31-.85-.59-1.3-.84l-2.76-1.55-.5 3.12c-.03.28-.1.55-.16.82h-7.7c-.12-.35-.22-.7-.3-1.07l-.63-2.82-2.53 1.4c-.42.24-.83.5-1.23.79a6.7 6.7 0 0 1 2.76-3.53l.98-.62v-1.12c.02-5 1.71-9.85 4.8-13.82Zm0-2.93a.67.67 0 0 0-.43.16l-.06.06a24.71 24.71 0 0 0-6.45 16.53 8.79 8.79 0 0 0-3.66 4.77 8.64 8.64 0 0 0 .3 5.98 9.7 9.7 0 0 1 4.06-4.4c.18.76.42 1.52.72 2.25a.68.68 0 0 0 .64.5h9.94c.2-.01.4-.2.5-.5.3-.7.5-1.42.6-2.16 1.8 1 3.23 2.54 4.08 4.4.85-1.89.98-4.02.37-6a8.56 8.56 0 0 0-3.73-4.75A24.17 24.17 0 0 0 11.52.22a.67.67 0 0 0-.5-.22Z" fill="#4EA8DE"/><path d="M11.02 16.16a2.82 2.82 0 0 1-2.57-1.69 2.7 2.7 0 0 1 .6-2.98 2.8 2.8 0 0 1 4.76 1.9 2.64 2.64 0 0 1-1.62 2.51 2.75 2.75 0 0 1-1.17.23v.03Z" fill="#4EA8DE"/><path d="M14.9 27.6a1.36 1.36 0 0 0-1.28.8c-.07.16-.11.33-.11.5v4.17c0 .36.14.7.4.96a1.4 1.4 0 0 0 1.97 0c.26-.25.4-.6.4-.96v-4.1a1.3 1.3 0 0 0-.8-1.26c-.16-.07-.34-.11-.52-.11h-.06ZM7.16 27.6a1.38 1.38 0 0 0-1.31.79c-.08.16-.12.34-.12.52v4.16c0 .36.15.7.4.96a1.4 1.4 0 0 0 1.97 0c.26-.25.4-.6.4-.96v-4.1a1.3 1.3 0 0 0-.8-1.26c-.16-.07-.34-.11-.52-.11h-.02ZM10.92 27.6a1.38 1.38 0 0 0-1.27.8c-.08.16-.11.33-.12.5v5.74c0 .36.15.71.4.97a1.4 1.4 0 0 0 1.97 0c.26-.26.41-.6.41-.97V29a1.3 1.3 0 0 0-.8-1.26c-.17-.07-.35-.1-.52-.1l-.07-.04Z" fill="#5E60CE"/></g><defs><clipPath id="a"><path fill="#fff" d="M0 0h22v36H0z"/></clipPath></defs></svg>