<svg fill="none" xmlns="http://www.w3.org/2000/svg" viewBox="0 0 126 48"><path d="M49 17.18v5.68H34.62v-5.68H49Zm-11.6-5.23h7.85v20.03c0 .3.05.56.16.77.1.2.26.35.48.45.22.1.5.15.84.15a11.45 11.45 0 0 0 1.53-.23l1.14 5.51c-.35.1-.85.23-1.5.38-.65.16-1.42.26-2.3.3-1.8.1-3.32-.09-4.54-.55a5.38 5.38 0 0 1-2.76-2.23 7.05 7.05 0 0 1-.9-3.8V11.94ZM62.49 39.4c-2.37 0-4.4-.47-6.08-1.4a9.67 9.67 0 0 1-3.88-3.96c-.9-1.7-1.35-3.66-1.35-5.9 0-2.23.45-4.19 1.35-5.87.9-1.7 2.2-3.01 3.88-3.95a12.23 12.23 0 0 1 6.08-1.42c2.36 0 4.4.47 6.08 1.42a9.56 9.56 0 0 1 3.87 3.95 12.3 12.3 0 0 1 1.35 5.88c0 2.23-.45 4.2-1.35 5.9-.9 1.68-2.19 3-3.87 3.94-1.69.94-3.72 1.4-6.08 1.4Zm.05-5.8c.67 0 1.24-.22 1.72-.67.49-.44.86-1.07 1.12-1.9.27-.82.4-1.8.4-2.94s-.13-2.13-.4-2.94a4.33 4.33 0 0 0-1.12-1.9 2.45 2.45 0 0 0-1.72-.67c-.7 0-1.3.22-1.8.67a4.2 4.2 0 0 0-1.15 1.9c-.27.82-.4 1.8-.4 2.94s.13 2.12.4 2.94a4.2 4.2 0 0 0 1.15 1.9c.5.45 1.1.67 1.8.67Z" fill="#4EA8DE"/><path d="M84.86 39.28c-1.55 0-2.98-.4-4.29-1.22a8.54 8.54 0 0 1-3.12-3.7 14.77 14.77 0 0 1-1.17-6.27c0-2.63.41-4.77 1.22-6.42a8.42 8.42 0 0 1 3.19-3.62 8.02 8.02 0 0 1 4.12-1.15c1.08 0 2.02.19 2.84.57.81.37 1.5.86 2.04 1.49.55.61.97 1.29 1.25 2.03h.12V9.9h7.84V39H91.1v-3.58h-.17a6.25 6.25 0 0 1-3.35 3.37c-.8.33-1.7.5-2.73.5Zm2.9-6.02c.72 0 1.34-.2 1.85-.62.52-.43.92-1.03 1.19-1.8.28-.77.43-1.69.43-2.75a8 8 0 0 0-.43-2.77 3.78 3.78 0 0 0-1.2-1.77 2.83 2.83 0 0 0-1.84-.63c-.72 0-1.33.2-1.85.63-.5.4-.89 1-1.16 1.77-.27.77-.4 1.7-.4 2.77 0 1.08.13 2 .4 2.79a4 4 0 0 0 1.16 1.77c.52.4 1.13.61 1.85.61Zm25.5 6.14c-2.37 0-4.4-.47-6.08-1.4a9.68 9.68 0 0 1-3.88-3.96 12.4 12.4 0 0 1-1.35-5.9c0-2.23.45-4.19 1.35-5.87.9-1.7 2.2-3.01 3.88-3.95a12.23 12.23 0 0 1 6.08-1.42c2.36 0 4.4.47 6.08 1.42a9.55 9.55 0 0 1 3.88 3.95 12.3 12.3 0 0 1 1.34 5.88c0 2.23-.45 4.2-1.34 5.9-.9 1.68-2.2 3-3.88 3.94-1.69.94-3.72 1.4-6.08 1.4Zm.05-5.8c.67 0 1.24-.22 1.72-.67.49-.44.86-1.07 1.13-1.9.26-.82.4-1.8.4-2.94s-.14-2.13-.4-2.94a4.34 4.34 0 0 0-1.13-1.9 2.45 2.45 0 0 0-1.72-.67c-.7 0-1.3.22-1.8.67a4.2 4.2 0 0 0-1.15 1.9c-.27.82-.4 1.8-.4 2.94s.14 2.12.4 2.94a4.2 4.2 0 0 0 1.15 1.9c.5.45 1.1.67 1.8.67Z" fill="#5E60CE"/><g clip-path="url(#a)"><path d="M11.02 12.93a22 22 0 0 1 4.74 13.89v1.2l1.03.62a6.44 6.44 0 0 1 2.8 3.53c-.42-.31-.85-.59-1.3-.84l-2.76-1.55-.5 3.12c-.03.28-.1.55-.16.82h-7.7c-.12-.35-.22-.7-.3-1.07l-.63-2.82-2.53 1.4c-.42.24-.83.5-1.23.79a6.7 6.7 0 0 1 2.76-3.53l.98-.62v-1.12c.02-5 1.71-9.85 4.8-13.82Zm0-2.93a.67.67 0 0 0-.43.16l-.06.06a24.71 24.71 0 0 0-6.45 16.53 8.79 8.79 0 0 0-3.66 4.77 8.64 8.64 0 0 0 .3 5.98 9.7 9.7 0 0 1 4.06-4.4c.18.76.42 1.52.72 2.25a.68.68 0 0 0 .64.5h9.94c.2-.01.4-.2.5-.5.3-.7.5-1.42.6-2.16 1.8 1 3.23 2.54 4.08 4.4.85-1.89.98-4.02.37-6a8.56 8.56 0 0 0-3.73-4.75 24.17 24.17 0 0 0-6.38-16.62.67.67 0 0 0-.5-.22Z" fill="#4EA8DE"/><path d="M11.02 26.16a2.82 2.82 0 0 1-2.57-1.69 2.7 2.7 0 0 1 .6-2.98 2.8 2.8 0 0 1 4.76 1.9 2.64 2.64 0 0 1-1.62 2.51 2.75 2.75 0 0 1-1.17.23v.03Z" fill="#4EA8DE"/><path d="M14.9 37.6a1.36 1.36 0 0 0-1.28.8c-.07.16-.11.33-.11.5v4.17c0 .36.14.7.4.96a1.4 1.4 0 0 0 1.97 0c.26-.25.4-.6.4-.96v-4.1a1.3 1.3 0 0 0-.8-1.26c-.16-.07-.34-.11-.52-.11h-.06ZM7.16 37.6a1.38 1.38 0 0 0-1.31.79c-.08.16-.12.34-.12.52v4.16c0 .36.15.7.4.96a1.4 1.4 0 0 0 1.97 0c.26-.25.4-.6.4-.96v-4.1a1.3 1.3 0 0 0-.8-1.26c-.16-.07-.34-.11-.52-.11h-.02ZM10.92 37.6a1.38 1.38 0 0 0-1.27.8c-.08.16-.11.33-.12.5v5.74c0 .36.15.71.4.97a1.4 1.4 0 0 0 1.97 0c.26-.26.41-.6.41-.97V39a1.3 1.3 0 0 0-.8-1.26c-.17-.07-.35-.1-.52-.1l-.07-.04Z" fill="#5E60CE"/></g><defs><clipPath id="a"><path fill="#fff" transform="translate(0 10)" d="M0 0h22v36H0z"/></clipPath></defs></svg>